HIERARCHY
ROOT hip
{
  OFFSET 0 0 0
  CHANNELS 6 Xposition Yposition Zposition Zrotation Yrotation Xrotation
  JOINT abdomen
  {
    OFFSET 0 20.6881 -0.73152
    CHANNELS 3 Zrotation Xrotation Yrotation
    JOINT chest
    {
      OFFSET 0 11.7043 -0.48768
      CHANNELS 3 Zrotation Xrotation Yrotation
      JOINT neck
      {
        OFFSET 0 22.1894 -2.19456
        CHANNELS 3 Zrotation Xrotation Yrotation
        JOINT head
        {
          OFFSET -0.24384 7.07133 1.2192
          CHANNELS 3 Zrotation Xrotation Yrotation
          JOINT leftEye
          {
            OFFSET 4.14528 8.04674 8.04672
            CHANNELS 3 Zrotation Xrotation Yrotation
            End Site
            {
              OFFSET 1 0 0
            }
          }
          JOINT rightEye
          {
            OFFSET -3.6576 8.04674 8.04672
            CHANNELS 3 Zrotation Xrotation Yrotation
            End Site
            {
              OFFSET 1 0 0
            }
          }
        }
      }
      JOINT rCollar
      {
        OFFSET -2.68224 19.2634 -4.8768
        CHANNELS 3 Zrotation Xrotation Yrotation
        JOINT rShldr
        {
          OFFSET -8.77824 -1.95073 1.46304
          CHANNELS 3 Zrotation Xrotation Yrotation
          JOINT rForeArm
          {
            OFFSET -28.1742 -1.7115 0.48768
            CHANNELS 3 Zrotation Xrotation Yrotation
            JOINT rHand
            {
              OFFSET -22.5879 0.773209 7.07136
              CHANNELS 3 Zrotation Xrotation Yrotation
              JOINT rThumb1
              {
                OFFSET -1.2192 -0.487915 3.41376
                CHANNELS 3 Zrotation Xrotation Yrotation
                JOINT rThumb2
                {
                  OFFSET -3.37035 -0.52449 3.41376
                  CHANNELS 3 Zrotation Xrotation Yrotation
                  End Site
                  {
                    OFFSET -1.78271 -1.18214 1.43049
                  }
                }
              }
              JOINT rIndex1
              {
                OFFSET -7.75947 0.938293 5.60832
                CHANNELS 3 Zrotation Xrotation Yrotation
                JOINT rIndex2
                {
                  OFFSET -2.54057 -0.884171 1.56538
                  CHANNELS 3 Zrotation Xrotation Yrotation
                  End Site
                  {
                    OFFSET -1.62519 -0.234802 1.16502
                  }
                }
              }
              JOINT rMid1
              {
                OFFSET -8.24714 1.18213 3.41376
                CHANNELS 3 Zrotation Xrotation Yrotation
                JOINT rMid2
                {
                  OFFSET -3.10165 -0.590103 1.0647
                  CHANNELS 3 Zrotation Xrotation Yrotation
                  End Site
                  {
                    OFFSET -2.48547 -0.328903 0.83742
                  }
                }
              }
              JOINT rRing1
              {
                OFFSET -8.82822 0.546677 1.51678
                CHANNELS 3 Zrotation Xrotation Yrotation
                JOINT rRing2
                {
                  OFFSET -2.60934 -0.819778 -0.0198488
                  CHANNELS 3 Zrotation Xrotation Yrotation
                  End Site
                  {
                    OFFSET -2.33842 -0.294052 0.168128
                  }
                }
              }
              JOINT rPinky1
              {
                OFFSET -8.27202 -0.0477905 -0.4584
                CHANNELS 3 Zrotation Xrotation Yrotation
                JOINT rPinky2
                {
                  OFFSET -1.82734 -0.647385 -0.700984
                  CHANNELS 3 Zrotation Xrotation Yrotation
                  End Site
                  {
                    OFFSET -1.69225 -0.51767 -0.607171
                  }
                }
              }
            }
          }
        }
      }
      JOINT lCollar
      {
        OFFSET 2.68224 19.2634 -4.8768
        CHANNELS 3 Zrotation Xrotation Yrotation
        JOINT lShldr
        {
          OFFSET 8.77824 -1.95073 1.46304
          CHANNELS 3 Zrotation Xrotation Yrotation
          JOINT lForeArm
          {
            OFFSET 28.1742 -1.7115 0.48768
            CHANNELS 3 Zrotation Xrotation Yrotation
            JOINT lHand
            {
              OFFSET 22.5879 0.773209 7.07136
              CHANNELS 3 Zrotation Xrotation Yrotation
              JOINT lThumb1
              {
                OFFSET 1.2192 -0.487915 3.41376
                CHANNELS 3 Zrotation Xrotation Yrotation
                JOINT lThumb2
                {
                  OFFSET 3.37035 -0.52449 3.41376
                  CHANNELS 3 Zrotation Xrotation Yrotation
                  End Site
                  {
                    OFFSET 1.78271 -1.18214 1.43049
                  }
                }
              }
              JOINT lIndex1
              {
                OFFSET 7.75947 0.938293 5.60832
                CHANNELS 3 Zrotation Xrotation Yrotation
                JOINT lIndex2
                {
                  OFFSET 2.54057 -0.884171 1.56538
                  CHANNELS 3 Zrotation Xrotation Yrotation
                  End Site
                  {
                    OFFSET 1.62519 -0.234802 1.16502
                  }
                }
              }
              JOINT lMid1
              {
                OFFSET 8.24714 1.18213 3.41376
                CHANNELS 3 Zrotation Xrotation Yrotation
                JOINT lMid2
                {
                  OFFSET 3.10165 -0.590103 1.0647
                  CHANNELS 3 Zrotation Xrotation Yrotation
                  End Site
                  {
                    OFFSET 2.48547 -0.328903 0.83742
                  }
                }
              }
              JOINT lRing1
              {
                OFFSET 8.82822 0.546677 1.51678
                CHANNELS 3 Zrotation Xrotation Yrotation
                JOINT lRing2
                {
                  OFFSET 2.60934 -0.819778 -0.0198488
                  CHANNELS 3 Zrotation Xrotation Yrotation
                  End Site
                  {
                    OFFSET 2.33842 -0.294052 0.168128
                  }
                }
              }
              JOINT lPinky1
              {
                OFFSET 8.27202 -0.0477905 -0.4584
                CHANNELS 3 Zrotation Xrotation Yrotation
                JOINT lPinky2
                {
                  OFFSET 1.82734 -0.647385 -0.700984
                  CHANNELS 3 Zrotation Xrotation Yrotation
                  End Site
                  {
                    OFFSET 1.69225 -0.51767 -0.607171
                  }
                }
              }
            }
          }
        }
      }
    }
  }
  JOINT rButtock
  {
    OFFSET -8.77824 4.35084 1.2192
    CHANNELS 3 Zrotation Xrotation Yrotation
    JOINT rThigh
    {
      OFFSET 0 -1.70687 -2.19456
      CHANNELS 3 Zrotation Xrotation Yrotation
      JOINT rShin
      {
        OFFSET 0 -36.8199 0.73152
        CHANNELS 3 Zrotation Xrotation Yrotation
        JOINT rFoot
        {
          OFFSET 0.73152 -45.1104 -5.12064
          CHANNELS 3 Zrotation Xrotation Yrotation
          End Site
          {
            OFFSET -1.1221 -3.69964 12.103
          }
        }
      }
    }
  }
  JOINT lButtock
  {
    OFFSET 8.77824 4.35084 1.2192
    CHANNELS 3 Zrotation Xrotation Yrotation
    JOINT lThigh
    {
      OFFSET 0 -1.70687 -2.19456
      CHANNELS 3 Zrotation Xrotation Yrotation
      JOINT lShin
      {
        OFFSET 0 -36.8199 0.73152
        CHANNELS 3 Zrotation Xrotation Yrotation
        JOINT lFoot
        {
          OFFSET -0.73152 -45.1104 -5.12064
          CHANNELS 3 Zrotation Xrotation Yrotation
          End Site
          {
            OFFSET 1.1221 -3.69964 12.103
          }
        }
      }
    }
  }
}
MOTION
Frames: 4
Frame Time:	0.06666666
-44.7755 83.1698 -167.613 -1.4066 -4.1273 -0.3599 1.38463 1.85537 -1.62839 2.06952 -1.31411 -0.33002 -3.61013 2.15376 0.0017106 2.21575 -0.111662 0.488504 -0.0 0.0 0.0 -0.0 0.0 0.0 3.51969e-14 2.66271e-14 -2.95715e-14 20.492 5.95608 -0.587958 -4.3756 -2.02006 6.79939 0.00557695 1.65826 0.232702 -5.8521e-11 -9.52429e-11 -4.15472e-10 -1.03053e-10 -1.63826e-10 -7.18286e-10 -5.85165e-11 -9.52444e-11 -4.15485e-10 7.73091 5.47488 0.417314 -5.8521e-11 -9.5245e-11 -4.15475e-10 2.90554 0.965183 0.102902 -5.85129e-11 -9.5245e-11 -4.15473e-10 10.2786 0.731801 0.0259123 -5.85305e-11 -9.52422e-11 -4.15467e-10 2.22167 -0.733487 -0.20892 3.50801e-14 2.6628e-14 -2.97645e-14 -23.3968 5.61907 0.568395 4.48577 -2.09399 -6.94483 -0.0190297 3.06084 -0.427958 -9.52705e-11 -1.65627e-10 -2.27883e-10 -1.66655e-10 -2.87409e-10 -3.93442e-10 -9.52754e-11 -1.65627e-10 -2.27876e-10 -7.73091 5.47488 -0.417314 -9.52718e-11 -1.6563e-10 -2.27888e-10 -2.90554 0.965183 -0.102902 -9.52742e-11 -1.65627e-10 -2.27883e-10 -10.2786 0.731801 -0.0259123 -9.52646e-11 -1.65624e-10 -2.27892e-10 -2.22167 -0.733487 0.20892 -2.03217e-16 0.0 -3.88251e-19 3.32259 -6.14032 1.49944 0.0144945 6.88798 0.0293197 -0.558592 0.390265 -0.972754 2.03217e-16 0.0 3.88251e-19 1.09908 -10.6746 0.381244 0.00791661 17.323 -0.178659 0.471251 3.16141 -0.706513
-44.9634 83.0158 -165.845 -1.7566 -4.358 -0.4793 4.42006 5.54809 -4.90711 6.14876 -3.94182 -0.994601 -10.8308 6.46127 0.00516096 6.65297 -0.334888 1.46553 -0.0 0.0 0.0 -0.0 0.0 0.0 1.05295e-13 7.98817e-14 -8.89134e-14 61.8583 17.8605 -1.84321 -11.7162 -5.71952 20.492 -0.0238074 4.97445 0.700451 -1.77603e-10 -2.85743e-10 -1.24646e-09 -3.12639e-10 -4.91498e-10 -2.15494e-09 -1.77597e-10 -2.85746e-10 -1.24647e-09 7.73091 5.47488 0.417314 -1.77602e-10 -2.85749e-10 -1.24646e-09 2.90554 0.965183 0.102902 -1.77598e-10 -2.85748e-10 -1.24646e-09 10.2786 0.731801 0.0259123 -1.77611e-10 -2.85743e-10 -1.24646e-09 2.22167 -0.733487 -0.20892 1.05138e-13 7.98844e-14 -8.90947e-14 -70.5376 16.8504 1.77314 11.9649 -5.91359 -20.9371 0.0815873 9.18046 -1.29868 -2.87854e-10 -4.96846e-10 -6.83692e-10 -5.03514e-10 -8.62162e-10 -1.1804e-09 -2.87858e-10 -4.96848e-10 -6.83684e-10 -7.73091 5.47488 -0.417314 -2.87861e-10 -4.96852e-10 -6.83696e-10 -2.90554 0.965183 -0.102902 -2.87857e-10 -4.96843e-10 -6.83693e-10 -10.2786 0.731801 -0.0259123 -2.87849e-10 -4.96842e-10 -6.83702e-10 -2.22167 -0.733487 0.20892 -2.03217e-16 0.0 -3.88251e-19 9.43798 -12.1209 4.66067 -0.00389683 20.4176 0.198927 -0.989639 -4.84096 -3.16389 2.03217e-16 0.0 3.88251e-19 4.54467 -25.9507 1.16179 0.643144 52.0777 -1.00235 0.433149 3.30304 -1.88188
-45.2546 82.7664 -164.136 -2.4325 -4.9528 -0.6722 6.23643 7.31426 -5.98485 7.69067 -5.15119 -1.18806 -14.06 8.50023 -0.0212253 8.6749 -0.702016 1.85387 -0.0 0.0 0.0 -0.0 0.0 0.0 5.4422e-14 5.75393e-14 -5.70795e-14 80.7267 23.5303 -1.9975 -14.5507 -7.1673 26.9562 -0.0528379 6.34183 0.895221 2.93999e-11 -2.7382e-10 -8.22648e-10 4.65173e-11 -4.71361e-10 -1.42301e-09 2.94067e-11 -2.73822e-10 -8.2266e-10 7.73091 5.47488 0.417314 2.94003e-11 -2.73824e-10 -8.2265e-10 2.90554 0.965183 0.102902 2.94055e-11 -2.73824e-10 -8.2265e-10 10.2786 0.731801 0.0259123 2.93938e-11 -2.73819e-10 -8.22646e-10 2.22167 -0.733487 -0.20892 5.42519e-14 5.75403e-14 -5.73323e-14 -92.4968 22.0321 2.79079 14.7029 -7.28994 -27.2753 0.192091 12.0091 -1.71485 -1.32711e-11 -5.67054e-11 -2.698e-10 -2.52162e-11 -1.00363e-10 -4.6758e-10 -1.32734e-11 -5.67056e-11 -2.69788e-10 -7.73091 5.47488 -0.417314 -1.32771e-11 -5.67099e-11 -2.69804e-10 -2.90554 0.965183 -0.102902 -1.32753e-11 -5.67018e-11 -2.69802e-10 -10.2786 0.731801 -0.0259123 -1.32663e-11 -5.67e-11 -2.6981e-10 -2.22167 -0.733487 0.20892 -2.03217e-16 0.0 -3.88251e-19 12.7049 -14.0481 6.32633 -0.0420595 26.6593 0.329124 -1.35773 -7.69132 -4.13193 2.03217e-16 0.0 3.88251e-19 6.64911 -33.5327 1.97036 1.6919 66.7732 -2.05557 0.405187 2.44952 -2.03895
-45.4612 82.6539 -162.356 -2.7471 -5.8076 -0.7563 6.51833 7.18747 -4.82123 6.73964 -4.94317 -0.906343 -13.2979 8.27064 -0.0774572 8.27316 -1.21332 1.65353 -0.0 0.0 0.0 -0.0 0.0 0.0 -1.17422e-13 -4.04e-14 6.59301e-14 76.6852 22.9755 -0.886074 -14.1911 -7.03084 26.0353 -0.0418827 5.76103 0.812497 5.62489e-10 -5.94748e-11 8.5597e-10 9.74415e-10 -1.03415e-10 1.47751e-09 5.62495e-10 -5.94715e-11 8.55957e-10 7.73091 5.47488 0.417314 5.62487e-10 -5.94718e-11 8.55962e-10 2.90554 0.965183 0.102902 5.62496e-10 -5.94735e-11 8.55966e-10 10.2786 0.731801 0.0259123 5.62485e-10 -5.94702e-11 8.55968e-10 2.22167 -0.733487 -0.20892 -1.17579e-13 -4.04044e-14 6.55228e-14 -88.8732 21.1769 3.46979 14.0722 -6.93619 -25.7913 0.17039 11.5509 -1.64651 7.28478e-10 1.15479e-09 1.01379e-09 1.26824e-09 1.99799e-09 1.74502e-09 7.28477e-10 1.1548e-09 1.01381e-09 -7.73091 5.47488 -0.417314 7.28481e-10 1.1548e-09 1.01379e-09 -2.90554 0.965183 -0.102902 7.28471e-10 1.1548e-09 1.01379e-09 -10.2786 0.731801 -0.0259123 7.28483e-10 1.1548e-09 1.01378e-09 -2.22167 -0.733487 0.20892 -2.03217e-16 0.0 -3.88251e-19 12.6082 -11.9824 6.36971 -0.0305094 25.6133 0.390607 -1.35637 -8.17997 -3.83815 2.03217e-16 0.0 3.88251e-19 7.03253 -33.4266 2.59766 1.19072 61.4276 -1.57678 0.42463 0.600252 -1.1805
